<svg width="99" height="99" viewBox="0 0 99 99" fill="none" xmlns="http://www.w3.org/2000/svg">
<g clip-path="url(#clip0_30_34)">
<path d="M68.0625 37.125C68.0625 42.0481 66.1068 46.7695 62.6257 50.2507C59.1445 53.7318 54.4231 55.6875 49.5 55.6875C44.5769 55.6875 39.8555 53.7318 36.3743 50.2507C32.8932 46.7695 30.9375 42.0481 30.9375 37.125C30.9375 32.2019 32.8932 27.4805 36.3743 23.9993C39.8555 20.5182 44.5769 18.5625 49.5 18.5625C54.4231 18.5625 59.1445 20.5182 62.6257 23.9993C66.1068 27.4805 68.0625 32.2019 68.0625 37.125Z" fill="white"/>
<path fill-rule="evenodd" clip-rule="evenodd" d="M0 49.5C0 36.3718 5.21516 23.7813 14.4982 14.4982C23.7813 5.21516 36.3718 0 49.5 0C62.6282 0 75.2187 5.21516 84.5018 14.4982C93.7848 23.7813 99 36.3718 99 49.5C99 62.6282 93.7848 75.2187 84.5018 84.5018C75.2187 93.7848 62.6282 99 49.5 99C36.3718 99 23.7813 93.7848 14.4982 84.5018C5.21516 75.2187 0 62.6282 0 49.5ZM49.5 6.1875C41.3435 6.18793 33.3529 8.49149 26.4479 12.833C19.5428 17.1746 14.0041 23.3777 10.469 30.7283C6.93399 38.079 5.54639 46.2784 6.46593 54.3829C7.38546 62.4874 10.5748 70.1675 15.6667 76.5394C20.0599 69.4609 29.7309 61.875 49.5 61.875C69.2691 61.875 78.9339 69.4547 83.3333 76.5394C88.4252 70.1675 91.6145 62.4874 92.5341 54.3829C93.4536 46.2784 92.066 38.079 88.531 30.7283C84.9959 23.3777 79.4572 17.1746 72.5521 12.833C65.6471 8.49149 57.6565 6.18793 49.5 6.1875Z" fill="white"/>
</g>
<defs>
<clipPath id="clip0_30_34">
<rect width="99" height="99" fill="white"/>
</clipPath>
</defs>
</svg>
