<svg width="145" height="145" viewBox="0 0 145 145" fill="none" xmlns="http://www.w3.org/2000/svg">
<g clip-path="url(#clip0_38_460)">
<path d="M31.6644 0.0090625L26.2722 7.16844C25.2411 8.52955 24.7625 10.23 24.9322 11.9291C25.102 13.6282 25.9075 15.2004 27.1875 16.3306V40.6453C25.8342 40.9534 24.5292 41.2767 23.2725 41.615C16.9106 43.3097 11.4459 45.4031 7.45844 47.9225C3.6975 50.2788 0 53.8494 0 58.7975V122.235C0 127.183 3.6975 130.754 7.45844 133.119C11.4459 135.638 16.9106 137.741 23.2725 139.427C36.0506 142.834 53.4506 144.891 72.5 144.891C91.5494 144.891 108.949 142.834 121.728 139.427C128.08 137.732 133.554 135.638 137.542 133.119C141.303 130.754 145 127.183 145 122.235V58.7975C145 53.8494 141.303 50.2787 137.542 47.9134C133.554 45.3941 128.089 43.2916 121.728 41.6059C120.429 41.2585 119.123 40.9352 117.812 40.6362V16.2581C119.063 15.1196 119.842 13.5545 119.996 11.8706C120.15 10.1868 119.669 8.50613 118.646 7.15937L113.227 0L107.835 7.1775C106.809 8.5373 106.333 10.2338 106.503 11.9286C106.673 13.6235 107.475 15.1921 108.75 16.3216V38.86C102.743 37.889 96.6953 37.1935 90.625 36.7756V16.2581C91.8752 15.1196 92.6541 13.5545 92.8084 11.8706C92.9627 10.1868 92.4812 8.50613 91.4587 7.15937L86.0394 0L80.6472 7.1775C79.6214 8.5373 79.1459 10.2338 79.3156 11.9286C79.4852 13.6235 80.2876 15.1921 81.5625 16.3216V36.2953C75.5226 36.0869 69.4774 36.0869 63.4375 36.2953V16.2581C64.6877 15.1196 65.4666 13.5545 65.6209 11.8706C65.7752 10.1868 65.2937 8.50613 64.2712 7.15937L58.8519 0L53.4597 7.1775C52.4339 8.5373 51.9584 10.2338 52.1281 11.9286C52.2977 13.6235 53.1001 15.1921 54.375 16.3216V36.7756C47.9406 37.2288 41.8416 37.9447 36.25 38.86V16.2581C37.5002 15.1196 38.2791 13.5545 38.4334 11.8706C38.5877 10.1868 38.1062 8.50613 37.0838 7.15937L31.6644 0.0090625ZM25.6106 50.3603L27.1875 49.9525V58.7159C30.015 59.3866 33.0358 59.9937 36.25 60.5375V48.0584C42.2531 47.0379 48.3017 46.306 54.375 45.8653V62.6763C57.3233 62.8937 60.3442 63.0569 63.4375 63.1656V45.3669C69.4772 45.151 75.5228 45.151 81.5625 45.3669V63.1656C84.6558 63.0569 87.6767 62.8937 90.625 62.6763V45.8653C97.15 46.3547 103.249 47.1069 108.75 48.0584V60.5375C111.964 59.9937 114.985 59.3866 117.812 58.7159V49.9525L119.398 50.3603C125.334 51.9462 129.82 53.7497 132.711 55.5713C135.829 57.5378 135.938 58.7431 135.938 58.7975C135.938 58.8519 135.829 60.0572 132.711 62.0238C129.82 63.8363 125.334 65.6488 119.389 67.2347C107.572 70.3975 90.9966 72.3913 72.5 72.3913C54.0125 72.3913 37.4281 70.3884 25.6106 67.2347C19.6656 65.6488 15.1797 63.8453 12.2887 62.0238C9.17125 60.0572 9.0625 58.8519 9.0625 58.7975C9.0625 58.7431 9.17125 57.5378 12.2887 55.5713C15.1797 53.7588 19.6656 51.9462 25.6106 50.3603ZM135.938 70.6331V79.9403L129.775 88.16C128.578 89.7497 126.862 90.8702 124.926 91.3271C122.989 91.784 120.953 91.5484 119.172 90.6612C115.875 89.0177 112.146 88.4511 108.51 89.0413C104.874 89.6316 101.515 91.3489 98.9081 93.9509L95.7544 97.1047C94.2109 98.6458 92.1633 99.5785 89.9876 99.7316C87.8118 99.8848 85.6539 99.2481 83.9097 97.9384L83.3659 97.5397C80.2294 95.1888 76.4152 93.9181 72.4955 93.9181C68.5757 93.9181 64.7616 95.1888 61.625 97.5397L61.0812 97.9384C59.3378 99.2456 57.1817 99.8808 55.008 99.7277C52.8343 99.5746 50.7886 98.6434 49.2456 97.1047L46.0737 93.9328C43.4712 91.3322 40.1166 89.6161 36.4848 89.0273C32.853 88.4385 29.1281 89.007 25.8372 90.6522C24.0588 91.5425 22.0238 91.7789 20.0886 91.32C18.1535 90.861 16.4414 89.736 15.2522 88.1419L9.0625 79.8225V70.6331C12.8687 72.7356 17.7263 74.5119 23.2725 75.9891C36.0506 79.3966 53.4506 81.4538 72.5 81.4538C91.5494 81.4538 108.949 79.3966 121.728 75.9891C127.274 74.5119 132.14 72.7266 135.938 70.6331ZM135.938 94.9116V122.235C135.938 122.289 135.829 123.495 132.711 125.452C129.82 127.283 125.334 129.086 119.389 130.672C107.572 133.835 90.9966 135.829 72.5 135.829C54.0125 135.829 37.4281 133.826 25.6106 130.672C19.6656 129.086 15.1797 127.283 12.2887 125.461C9.17125 123.495 9.0625 122.289 9.0625 122.235V94.8662C11.6337 97.6982 15.0604 99.6119 18.8203 100.315C22.5801 101.019 26.4669 100.474 29.8881 98.7631C31.4794 97.9661 33.2813 97.6904 35.0381 97.9751C36.7949 98.2597 38.4174 99.0903 39.6756 100.349L42.8294 103.512C45.9158 106.598 50.012 108.466 54.3656 108.774C58.7192 109.082 63.0377 107.809 66.5278 105.188L67.0625 104.79C68.6312 103.613 70.5391 102.977 72.5 102.977C74.4609 102.977 76.3688 103.613 77.9375 104.79L78.4812 105.188C81.9699 107.804 86.2846 109.074 90.6341 108.767C94.9835 108.459 99.0762 106.593 102.162 103.512L105.315 100.358C106.579 99.1015 108.204 98.2726 109.963 97.9881C111.722 97.7036 113.526 97.9778 115.121 98.7722C122.199 102.307 130.69 100.657 135.938 94.9116Z" fill="#611E01"/>
</g>
<defs>
<clipPath id="clip0_38_460">
<rect width="145" height="145" fill="white"/>
</clipPath>
</defs>
</svg>
