<svg width="99" height="99" viewBox="0 0 99 99" fill="none" xmlns="http://www.w3.org/2000/svg">
<path d="M0 3.3C0 2.42479 0.347688 1.58542 0.966578 0.966547C1.58547 0.347677 2.42486 0 3.3001 0H13.2004C13.9365 0.000203356 14.6515 0.246515 15.2315 0.699763C15.8115 1.15301 16.2234 1.78717 16.4015 2.5014L19.0746 13.2H95.703C96.1875 13.2004 96.666 13.3076 97.1045 13.5138C97.543 13.7201 97.9307 14.0203 98.24 14.3933C98.5494 14.7663 98.7728 15.2028 98.8944 15.6718C99.016 16.1409 99.0328 16.6309 98.9437 17.1072L89.0434 69.9072C88.9018 70.6634 88.5005 71.3464 87.9087 71.8381C87.317 72.3298 86.572 72.5993 85.8027 72.6H26.4008C25.6314 72.5993 24.8865 72.3298 24.2948 71.8381C23.703 71.3464 23.3017 70.6634 23.1601 69.9072L13.2664 17.2062L10.6263 6.6H3.3001C2.42486 6.6 1.58547 6.25232 0.966578 5.63345C0.347688 5.01458 0 4.17521 0 3.3ZM20.4738 19.8L29.1399 66H83.0636L91.7296 19.8H20.4738ZM33.001 72.6C29.5001 72.6 26.1425 73.9907 23.6669 76.4662C21.1914 78.9417 19.8006 82.2991 19.8006 85.8C19.8006 89.3009 21.1914 92.6583 23.6669 95.1338C26.1425 97.6093 29.5001 99 33.001 99C36.502 99 39.8596 97.6093 42.3351 95.1338C44.8107 92.6583 46.2014 89.3009 46.2014 85.8C46.2014 82.2991 44.8107 78.9417 42.3351 76.4662C39.8596 73.9907 36.502 72.6 33.001 72.6ZM79.2024 72.6C75.7015 72.6 72.3439 73.9907 69.8684 76.4662C67.3928 78.9417 66.002 82.2991 66.002 85.8C66.002 89.3009 67.3928 92.6583 69.8684 95.1338C72.3439 97.6093 75.7015 99 79.2024 99C82.7034 99 86.061 97.6093 88.5365 95.1338C91.0121 92.6583 92.4029 89.3009 92.4029 85.8C92.4029 82.2991 91.0121 78.9417 88.5365 76.4662C86.061 73.9907 82.7034 72.6 79.2024 72.6ZM33.001 79.2C34.7515 79.2 36.4303 79.8954 37.6681 81.1331C38.9058 82.3708 39.6012 84.0496 39.6012 85.8C39.6012 87.5504 38.9058 89.2292 37.6681 90.4669C36.4303 91.7046 34.7515 92.4 33.001 92.4C31.2505 92.4 29.5718 91.7046 28.334 90.4669C27.0962 89.2292 26.4008 87.5504 26.4008 85.8C26.4008 84.0496 27.0962 82.3708 28.334 81.1331C29.5718 79.8954 31.2505 79.2 33.001 79.2ZM79.2024 79.2C80.9529 79.2 82.6317 79.8954 83.8695 81.1331C85.1073 82.3708 85.8027 84.0496 85.8027 85.8C85.8027 87.5504 85.1073 89.2292 83.8695 90.4669C82.6317 91.7046 80.9529 92.4 79.2024 92.4C77.452 92.4 75.7732 91.7046 74.5354 90.4669C73.2976 89.2292 72.6022 87.5504 72.6022 85.8C72.6022 84.0496 73.2976 82.3708 74.5354 81.1331C75.7732 79.8954 77.452 79.2 79.2024 79.2Z" fill="white"/>
</svg>
