<svg width="170" height="170" viewBox="0 0 170 170" fill="none" xmlns="http://www.w3.org/2000/svg">
<path d="M159.374 74.375C159.363 64.5155 155.442 55.0628 148.47 48.0911C141.498 41.1194 132.046 37.198 122.186 37.1875C121.011 37.1875 119.836 37.2539 118.673 37.3602C115.675 30.9605 110.915 25.5477 104.951 21.7559C98.9871 17.9641 92.0661 15.9502 84.9988 15.9502C77.9315 15.9502 71.0106 17.9641 65.0466 21.7559C59.0826 25.5477 54.3227 30.9605 51.3242 37.3602C50.1621 37.2539 48.9867 37.1875 47.8113 37.1875C39.3696 37.1895 31.1798 40.0637 24.5882 45.3375C17.9966 50.6112 13.3954 57.9708 11.5411 66.2063C9.6868 74.4418 10.6897 83.0632 14.3849 90.6531C18.0801 98.2431 24.2477 104.35 31.8738 107.97V138.125C31.8738 140.943 32.9933 143.645 34.9858 145.638C36.9784 147.631 39.6809 148.75 42.4988 148.75H127.499C130.317 148.75 133.019 147.631 135.012 145.638C137.004 143.645 138.124 140.943 138.124 138.125V107.97C144.477 104.948 149.844 100.19 153.605 94.2443C157.366 88.2988 159.366 81.41 159.374 74.375ZM127.499 138.125H42.4988V111.177C44.2581 111.434 46.0335 111.562 47.8113 111.563H122.186C123.964 111.562 125.74 111.434 127.499 111.177V138.125ZM122.186 100.938H113.055L116.714 86.2883C117.029 84.9311 116.798 83.5046 116.071 82.3161C115.344 81.1277 114.179 80.2724 112.828 79.9344C111.476 79.5965 110.046 79.8031 108.845 80.5096C107.644 81.2162 106.769 82.3661 106.408 83.7117L102.098 100.938H90.3113V85C90.3113 83.591 89.7516 82.2398 88.7553 81.2435C87.7591 80.2472 86.4078 79.6875 84.9988 79.6875C83.5899 79.6875 82.2386 80.2472 81.2423 81.2435C80.246 82.2398 79.6863 83.591 79.6863 85V100.938H67.8992L63.5895 83.7117C63.4302 83.0246 63.1356 82.3762 62.723 81.8041C62.3105 81.232 61.7881 80.7479 61.1865 80.3798C60.5848 80.0118 59.9159 79.7672 59.2187 79.6604C58.5215 79.5536 57.81 79.5867 57.1258 79.7578C56.4415 79.9288 55.7982 80.2344 55.2333 80.6568C54.6684 81.0791 54.1932 81.6097 53.8356 82.2175C53.4779 82.8254 53.2448 83.4985 53.15 84.1974C53.0552 84.8963 53.1004 85.6071 53.2832 86.2883L56.9422 100.938H47.8113C40.7665 100.938 34.0102 98.139 29.0288 93.1575C24.0474 88.1761 21.2488 81.4198 21.2488 74.375C21.2488 67.3302 24.0474 60.5739 29.0288 55.5925C34.0102 50.611 40.7665 47.8125 47.8113 47.8125H48.1965C47.9395 49.5717 47.8107 51.3472 47.8113 53.125C47.8113 54.534 48.371 55.8852 49.3673 56.8815C50.3636 57.8778 51.7149 58.4375 53.1238 58.4375C54.5328 58.4375 55.8841 57.8778 56.8803 56.8815C57.8766 55.8852 58.4363 54.534 58.4363 53.125C58.4363 46.0802 61.2349 39.3239 66.2163 34.3425C71.1977 29.361 77.954 26.5625 84.9988 26.5625C92.0436 26.5625 98.7999 29.361 103.781 34.3425C108.763 39.3239 111.561 46.0802 111.561 53.125C111.561 54.534 112.121 55.8852 113.117 56.8815C114.114 57.8778 115.465 58.4375 116.874 58.4375C118.283 58.4375 119.634 57.8778 120.63 56.8815C121.627 55.8852 122.186 54.534 122.186 53.125C122.187 51.3472 122.058 49.5717 121.801 47.8125H122.186C129.231 47.8125 135.987 50.611 140.969 55.5925C145.95 60.5739 148.749 67.3302 148.749 74.375C148.749 81.4198 145.95 88.1761 140.969 93.1575C135.987 98.139 129.231 100.938 122.186 100.938Z" fill="#611E01"/>
</svg>
