<svg width="49" height="49" viewBox="0 0 49 49" fill="none" xmlns="http://www.w3.org/2000/svg">
<path d="M24.375 13.125C22.15 13.125 19.9749 13.7848 18.1248 15.021C16.2748 16.2571 14.8328 18.0141 13.9814 20.0698C13.1299 22.1255 12.9071 24.3875 13.3412 26.5698C13.7753 28.7521 14.8467 30.7566 16.42 32.33C17.9934 33.9033 19.9979 34.9748 22.1802 35.4088C24.3625 35.8429 26.6245 35.6201 28.6802 34.7686C30.7359 33.9172 32.4929 32.4752 33.729 30.6252C34.9652 28.7751 35.625 26.6 35.625 24.375C35.6219 21.3923 34.4356 18.5326 32.3265 16.4235C30.2174 14.3144 27.3577 13.1281 24.375 13.125ZM24.375 31.875C22.8916 31.875 21.4416 31.4351 20.2082 30.611C18.9749 29.7869 18.0136 28.6156 17.4459 27.2451C16.8782 25.8747 16.7297 24.3667 17.0191 22.9118C17.3085 21.457 18.0228 20.1206 19.0717 19.0717C20.1206 18.0228 21.457 17.3085 22.9118 17.0191C24.3667 16.7297 25.8747 16.8782 27.2451 17.4459C28.6156 18.0136 29.7869 18.9749 30.611 20.2082C31.4351 21.4416 31.875 22.8916 31.875 24.375C31.875 26.3641 31.0848 28.2718 29.6783 29.6783C28.2718 31.0848 26.3641 31.875 24.375 31.875ZM35.625 0H13.125C9.64518 0.0037224 6.30894 1.38773 3.84834 3.84834C1.38773 6.30894 0.0037224 9.64518 0 13.125V35.625C0.0037224 39.1048 1.38773 42.4411 3.84834 44.9017C6.30894 47.3623 9.64518 48.7463 13.125 48.75H35.625C39.1048 48.7463 42.4411 47.3623 44.9017 44.9017C47.3623 42.4411 48.7463 39.1048 48.75 35.625V13.125C48.7463 9.64518 47.3623 6.30894 44.9017 3.84834C42.4411 1.38773 39.1048 0.0037224 35.625 0ZM45 35.625C45 38.1114 44.0123 40.496 42.2541 42.2541C40.496 44.0123 38.1114 45 35.625 45H13.125C10.6386 45 8.25403 44.0123 6.49587 42.2541C4.73772 40.496 3.75 38.1114 3.75 35.625V13.125C3.75 10.6386 4.73772 8.25403 6.49587 6.49587C8.25403 4.73772 10.6386 3.75 13.125 3.75H35.625C38.1114 3.75 40.496 4.73772 42.2541 6.49587C44.0123 8.25403 45 10.6386 45 13.125V35.625ZM39.375 12.1875C39.375 12.7438 39.21 13.2875 38.901 13.75C38.592 14.2126 38.1527 14.573 37.6388 14.7859C37.1249 14.9988 36.5594 15.0545 36.0138 14.946C35.4682 14.8374 34.9671 14.5696 34.5738 14.1762C34.1804 13.7829 33.9126 13.2818 33.804 12.7362C33.6955 12.1906 33.7512 11.6251 33.9641 11.1112C34.177 10.5973 34.5374 10.158 35 9.84899C35.4625 9.53995 36.0062 9.375 36.5625 9.375C37.3084 9.375 38.0238 9.67132 38.5512 10.1988C39.0787 10.7262 39.375 11.4416 39.375 12.1875Z" fill="black"/>
</svg>
