<svg width="202" height="119" viewBox="0 0 202 119" fill="none" xmlns="http://www.w3.org/2000/svg">
<path d="M7.73261 52.8657C7.65538 52.8301 7.58113 52.7944 7.50391 52.7588L7.73261 52.8657Z" fill="#FFE6EF"/>
<path d="M7.73261 52.8657C7.65538 52.8301 7.58113 52.7944 7.50391 52.7588" stroke="#FFE6EF" stroke-width="2" stroke-miterlimit="10"/>
<path d="M23.7428 50.056H23.7383" stroke="#FFE6EF" stroke-width="2" stroke-miterlimit="10"/>
<path d="M24.598 46.3684C24.5921 46.309 24.5862 46.2526 24.5772 46.1961C24.0515 42.525 19.4626 39.5964 13.8253 39.5044C13.6352 39.5014 13.4481 39.5044 13.258 39.5044C7.62063 39.6024 3.06442 42.5725 2.79413 46.3446C2.78522 46.4367 2.78225 46.5258 2.78225 46.6179C2.77631 46.8941 2.7971 47.1703 2.83572 47.4406C2.9367 48.1148 3.17431 48.7623 3.5337 49.3742" stroke="#FFE6EF" stroke-width="2" stroke-miterlimit="10"/>
<path d="M1.6297 53.5133C1.27328 52.6252 0.997054 51.5648 1.00002 51.3688C1.02378 49.9164 1.75444 48.5887 2.98112 47.5165C3.04052 47.4631 3.10586 47.4096 3.16824 47.3591C5.04537 45.8146 7.97097 44.8463 11.2411 44.8998C11.7312 44.9087 12.2153 44.9384 12.6846 44.9889C17.5883 45.5295 21.3159 48.3571 21.2624 51.7015C21.2594 51.9153 21.2416 52.1262 21.206 52.3311" stroke="#FFE6EF" stroke-width="2" stroke-miterlimit="10"/>
<path d="M27.1051 52.8568C27.509 51.9807 27.4853 51.2827 27.4912 51.0896C27.5209 49.3045 26.4695 47.665 24.7408 46.4473C24.723 46.4354 24.7052 46.4205 24.6844 46.4086C22.8667 45.1434 20.3123 44.3355 17.4729 44.288C15.7442 44.2582 14.1136 44.5167 12.685 44.9889C9.48018 46.0552 7.27633 48.2204 7.23474 50.754C7.23177 50.9975 7.24663 51.2351 7.28227 51.4698L7.32385 51.7074C7.40701 52.1054 7.54661 52.4915 7.73373 52.8628" stroke="#FFE6EF" stroke-width="2" stroke-miterlimit="10"/>
<path d="M27.1051 52.8568L16.8789 80.0218" stroke="#FFE6EF" stroke-width="2" stroke-miterlimit="10"/>
<path d="M1.16406 52.0341L9.89334 79.6268C8.40827 80.0159 7.9776 80.6337 7.9776 80.6337L8.44094 116.457C8.44094 116.457 11.5655 117.268 13.4249 117.3C15.2871 117.33 18.0434 116.617 18.0434 116.617L19.083 80.5416C19.083 80.5416 18.9672 79.8495 17.491 79.7545C16.7752 79.7099 14.9634 79.6773 13.2882 79.6595C11.5121 79.6387 9.89334 79.6298 9.89334 79.6298" fill="#FFE6EF"/>
<path d="M1.16406 52.0341L9.89334 79.6268C8.40827 80.0159 7.9776 80.6337 7.9776 80.6337L8.44094 116.457C8.44094 116.457 11.5655 117.268 13.4249 117.3C15.2871 117.33 18.0434 116.617 18.0434 116.617L19.083 80.5416C19.083 80.5416 18.9672 79.8495 17.491 79.7545C16.7752 79.7099 14.9634 79.6773 13.2882 79.6595C11.5121 79.6387 9.89334 79.6298 9.89334 79.6298" stroke="#FFE6EF" stroke-width="2" stroke-miterlimit="10"/>
<path d="M13.4307 116.887C13.9861 106.456 13.2852 79.6594 13.2852 79.6594L13.4307 116.887Z" fill="#FFE6EF"/>
<path d="M13.4307 116.887C13.9861 106.456 13.2852 79.6594 13.2852 79.6594" stroke="#FFE6EF" stroke-width="2" stroke-miterlimit="10"/>
<path d="M21.2448 52.5509L14.957 79.6833" stroke="#FFE6EF" stroke-width="2" stroke-miterlimit="10"/>
<path d="M7.28125 51.4728L12.1434 79.6358" stroke="#FFE6EF" stroke-width="2" stroke-miterlimit="10"/>
<path d="M2.91406 46.3344L11.082 79.7634" stroke="#FFE6EF" stroke-width="2" stroke-miterlimit="10"/>
<path d="M16.082 79.7011L23.7391 50.056H23.7421L24.6836 46.4086L24.7192 46.275V46.272L24.7846 46.0195" fill="#FFE6EF"/>
<path d="M16.082 79.7011L23.7391 50.056H23.7421L24.6836 46.4086L24.7192 46.275V46.272L24.7846 46.0195" stroke="#FFE6EF" stroke-width="2" stroke-miterlimit="10"/>
<path d="M18.7734 0.5C22.3261 0.500033 25.0798 1.31979 26.9297 2.61328C28.7694 3.89976 29.7236 5.65556 29.7236 7.60352C29.7236 10.5965 27.4747 12.9159 24.7285 12.916C21.9823 12.916 19.7812 10.5991 19.7812 7.70117C19.7814 5.95242 20.506 4.44777 21.6377 3.48047L22.5361 2.71289L21.3594 2.60254C20.8553 2.55537 20.2792 2.50293 19.7441 2.50293C16.1158 2.50302 13.2887 4.09875 11.3857 6.76855C9.4955 9.42064 8.53421 13.1041 8.53418 17.2891C8.53418 21.469 9.44676 25.05 11.3262 27.5986C13.2209 30.1679 16.0634 31.6387 19.7891 31.6387C24.61 31.6387 28.3843 29.0636 30.3848 25.1445C29.1881 28.2817 27.5689 30.7876 25.5098 32.5586C23.2057 34.5401 20.3232 35.6289 16.7891 35.6289C12.3337 35.6289 8.61951 33.9065 6.0127 30.9092C3.4007 27.9059 1.87109 23.5869 1.87109 18.3555C1.87111 13.1353 3.54398 8.67462 6.47461 5.52344C9.40184 2.37592 13.6158 0.5 18.7734 0.5Z" fill="#FFE6EF" stroke="#FFE6EF"/>
<path d="M44.4893 10.5243C48.0839 10.5243 51.0171 11.7745 53.0527 13.9218C55.0909 16.0717 56.2676 19.1621 56.2676 22.9061C56.2675 26.647 55.0573 29.824 52.9688 32.0614C50.883 34.2955 47.8909 35.6258 44.2578 35.6259C40.6182 35.6259 37.6627 34.3523 35.6152 32.1757C33.5648 29.9958 32.3867 26.8688 32.3867 23.0985C32.3868 19.3346 33.6191 16.196 35.7275 14.0018C37.8344 11.8095 40.8502 10.5243 44.4893 10.5243ZM44.3076 12.578C42.5998 12.5781 41.2758 13.7865 40.4053 15.6376C39.5318 17.4951 39.0527 20.106 39.0527 23.2001C39.0528 26.2939 39.5304 28.8586 40.3994 30.6698C41.2677 32.4794 42.5829 33.6288 44.2607 33.6288H44.7607V33.5878C46.248 33.3787 47.4226 32.2432 48.2246 30.5839C49.1169 28.7376 49.6074 26.149 49.6074 23.1014C49.6074 20.0539 49.1171 17.4664 48.2314 15.621C47.3491 13.7825 46.0131 12.578 44.3076 12.578Z" fill="#FFE6EF" stroke="#FFE6EF"/>
<path d="M74.7656 10.5243C77.1011 10.5243 78.8567 11.3768 80.0391 12.828C81.2325 14.293 81.8838 16.4216 81.8838 19.0331V31.576C81.8838 32.2292 81.9738 32.8048 82.2822 33.2186C82.62 33.6718 83.1277 33.8192 83.6758 33.8192H83.6768H83.7002C83.7109 33.8189 83.7245 33.8173 83.7402 33.8163C83.7543 33.8153 83.7702 33.8122 83.7881 33.8104C83.6273 34.0242 83.4273 34.2462 83.1758 34.4569C82.4082 35.0998 81.23 35.6287 79.6133 35.6288C78.1845 35.6288 77.1124 35.2227 76.3916 34.4403C75.6646 33.6511 75.2208 32.3998 75.2207 30.5604V19.5165C75.2207 17.7001 74.8905 16.1779 74.21 15.0927C73.513 13.9815 72.4581 13.3495 71.1211 13.3495C69.8562 13.3495 68.783 13.963 68 14.9862C67.2245 15.9997 66.7289 17.416 66.5605 19.077L66.5576 19.1024V31.1864C66.5576 32.5144 67.2859 33.8566 68.2041 34.663L68.2207 34.6776L68.2383 34.6903L68.4941 34.8788V35.1415H58V34.8632L58.2314 34.6757L58.2305 34.6747C59.2676 33.8545 59.9395 32.5059 59.9395 31.1864V16.5116C59.9395 15.2103 59.28 13.806 58.2305 13.0223H58.2314L58 12.8329V12.4667L65.2139 11.0555H66.5547V16.1532L67.4814 14.6425C69.0578 12.0727 71.6682 10.5243 74.7656 10.5243Z" fill="#FFE6EF" stroke="#FFE6EF"/>
<path d="M96.417 0.50293C99.1005 0.502951 100.9 1.08411 102.02 1.97949C103.122 2.86143 103.627 4.09883 103.627 5.57227C103.627 8.03189 102.169 9.47945 100.436 9.47949C98.6537 9.47949 97.1963 7.97837 97.1963 6.10645C97.1963 4.98326 97.6472 4.01548 98.3994 3.39062L98.8623 3.00684L98.4004 2.62207C98.0472 2.32773 97.548 2.21492 97.1123 2.21484C96.5605 2.21484 96.0773 2.4044 95.6846 2.78223C95.3056 3.14688 95.0362 3.66159 94.8408 4.27637C94.4523 5.49939 94.3037 7.28551 94.3037 9.59082V11.0586H97.3955V13.0615H94.3037V31.1895C94.3037 32.5066 94.976 33.8568 95.9609 34.6748L95.9717 34.6846L95.9844 34.6934L96.2402 34.8818V35.1445H85.7461V34.8662L85.9707 34.6826L85.9717 34.6836C87.0223 33.8559 87.6374 32.4988 87.6377 31.1904L87.6855 13.5635L87.6865 13.0615H85.8857V11.0586H87.6855V9.10645C87.6855 5.93349 88.5902 3.81153 90.0762 2.47461C91.5719 1.12895 93.7401 0.50293 96.417 0.50293Z" fill="#FFE6EF" stroke="#FFE6EF"/>
<path d="M110.73 10.5272C114.05 10.5272 116.374 11.4785 117.864 12.9012C119.262 14.2355 119.973 16.028 120.057 17.9686L120.065 18.3583C120.064 23.5118 115.854 27.4462 109.994 27.4462C108.798 27.4462 107.548 27.2607 106.238 26.9296L105.196 26.6669L105.665 27.6327C106.896 30.1667 109.095 31.6453 111.931 31.6454C114.299 31.6454 116.203 30.6213 117.563 29.3915C118.644 28.4147 119.409 27.2831 119.805 26.3798C119.05 29.0675 117.82 31.2891 116.151 32.8768C114.314 34.6254 111.922 35.6317 108.976 35.6317C105.734 35.6317 102.949 34.4352 100.973 32.3387C98.9949 30.2408 97.7969 27.2092 97.7969 23.4911C97.7969 19.5855 99.1067 16.3528 101.355 14.0975C103.604 11.8425 106.829 10.5273 110.73 10.5272ZM110.499 12.5751C108.884 12.5752 107.363 13.6399 106.271 15.3134C105.172 16.9982 104.46 19.3606 104.46 22.1307C104.46 23.533 104.65 24.8329 104.935 25.9813L105.062 26.4911L105.563 26.3397C110.572 24.8389 113.093 21.5085 113.746 18.4843C114.07 16.9827 113.936 15.5353 113.385 14.4393C112.825 13.3275 111.826 12.5751 110.499 12.5751Z" fill="#FFE6EF" stroke="#FFE6EF"/>
<path d="M130.723 11.0557V31.1865C130.723 32.5146 131.451 33.8567 132.369 34.6631L132.386 34.6777L132.403 34.6904L132.662 34.8809V35.1416H122.168V34.8633L122.393 34.6797L122.394 34.6807C123.434 33.861 124.107 32.5085 124.107 31.1865V16.5107C124.107 15.2096 123.448 13.8061 122.398 13.0225H122.399L122.168 12.833V12.4668L129.382 11.0557H130.723ZM127.395 0.5C129.54 0.500062 131.326 2.37969 131.326 4.64844C131.326 6.91031 129.547 8.74896 127.395 8.74902C125.249 8.74902 123.508 6.91709 123.508 4.64844C123.508 2.37628 125.297 0.5 127.395 0.5Z" fill="#FFE6EF" stroke="#FFE6EF"/>
<path d="M142.959 6.55615V11.0591H145.683V13.062H142.959V31.5786C142.959 32.2425 143.064 32.8159 143.379 33.2271C143.677 33.6152 144.096 33.7798 144.553 33.8149L144.751 33.8218H144.774C144.785 33.8215 144.798 33.8208 144.814 33.8198C144.831 33.8188 144.851 33.8152 144.873 33.813C144.714 34.0275 144.516 34.2496 144.266 34.4604C143.505 35.1016 142.328 35.6323 140.688 35.6323C139.259 35.6323 138.2 35.2259 137.491 34.4458C136.774 33.6573 136.34 32.4056 136.34 30.563V13.062H134.172V11.0591H135.84C137.4 11.0591 138.726 10.649 139.665 9.78174C140.509 9.00283 140.984 7.90583 141.077 6.55615H142.959Z" fill="#FFE6EF" stroke="#FFE6EF"/>
<path d="M158.923 10.5243C162.517 10.5243 165.451 11.7745 167.486 13.9218C169.524 16.0717 170.701 19.1621 170.701 22.9061C170.701 26.647 169.491 29.824 167.402 32.0614C165.317 34.2955 162.325 35.6258 158.691 35.6259C155.052 35.6259 152.096 34.3523 150.049 32.1757C147.998 29.9958 146.82 26.8688 146.82 23.0985C146.82 19.3346 148.053 16.196 150.161 14.0018C152.268 11.8095 155.284 10.5243 158.923 10.5243ZM158.738 12.578C157.03 12.5781 155.706 13.7865 154.836 15.6376C153.962 17.4951 153.483 20.106 153.483 23.2001C153.483 26.2939 153.961 28.8586 154.83 30.6698C155.698 32.4794 157.014 33.6288 158.691 33.6288H159.191V33.5878C160.679 33.3787 161.853 32.2432 162.655 30.5839C163.548 28.7376 164.038 26.149 164.038 23.1014C164.038 20.0539 163.548 17.4664 162.662 15.621C161.78 13.7825 160.444 12.578 158.738 12.578Z" fill="#FFE6EF" stroke="#FFE6EF"/>
<path d="M61.6445 38.6519C67.3991 38.6083 72.1371 40.5242 75.4492 43.9497C78.7636 47.3778 80.6935 52.3632 80.7402 58.5337C80.787 64.73 78.9066 69.8182 75.6494 73.3628C72.4966 76.7938 68.0201 78.8157 62.6465 78.9771L62.124 78.9868L47.627 79.0991L47.623 78.646L47.9355 78.3989L47.9365 78.3999C49.188 77.4464 49.9997 75.8694 49.9863 74.3354L49.752 43.4907L49.7402 43.2036C49.6347 41.7761 48.8443 40.3048 47.6562 39.4702L47.3232 39.1792L47.3193 38.7603L61.6445 38.6519ZM60.6953 41.1919L58.6426 41.2065L58.1426 41.2104L58.1465 41.7104L58.4082 75.9771V76.481L58.9121 76.4761L60.6797 76.4614L60.6787 76.4604C64.257 76.4338 67.2021 74.6732 69.2207 71.5386C71.2278 68.4217 72.3164 63.9589 72.2744 58.4819C72.2339 53.1198 71.1073 48.8013 69.1025 45.814C67.0854 42.8084 64.1852 41.1653 60.6953 41.1919Z" fill="#FFE6EF" stroke="#FFE6EF"/>
<path d="M98.0498 49.5465C102.527 49.5117 106.195 50.969 108.752 53.5006C111.309 56.0326 112.794 59.6792 112.827 64.0992V64.1002C112.862 68.5765 111.392 72.3478 108.814 75.0065C106.238 77.6642 102.521 79.246 97.9922 79.2809C93.5769 79.3142 89.877 77.8311 87.2744 75.2614C84.6719 72.6916 83.1319 69.001 83.0986 64.5553C83.0639 60.0531 84.5611 56.3267 87.1641 53.7184C89.7677 51.1094 93.5155 49.5813 98.0498 49.5465ZM97.8398 52.1432C95.8347 52.1588 94.2397 53.5427 93.1787 55.7203C92.1162 57.9014 91.5345 60.9683 91.5615 64.6071V64.608C91.5886 68.1883 92.2022 71.19 93.2842 73.3131C94.3654 75.4348 95.9667 76.7594 97.9658 76.7457V76.7467H97.9727C100.027 76.7314 101.654 75.3552 102.732 73.1862C103.744 71.153 104.318 68.3535 104.362 65.0602L104.364 64.3951C104.337 60.7563 103.709 57.7245 102.604 55.5865C101.498 53.4472 99.8644 52.1279 97.8398 52.1432Z" fill="#FFE6EF" stroke="#FFE6EF"/>
<path d="M130.326 49.2942C133.579 49.2696 136.392 50.096 138.379 51.426C140.337 52.7363 141.462 54.5086 141.509 56.4338L141.51 56.5256C141.531 59.2738 139.486 61.2872 136.915 61.3059C134.272 61.3247 132.21 59.3315 132.191 56.7678C132.181 55.268 132.841 53.9823 133.857 53.1526L134.518 52.6135L133.726 52.3C133.405 52.173 132.536 51.8725 131.369 51.8821C129.153 51.8986 127.156 53.1017 125.736 55.0881C124.318 57.0732 123.46 59.8535 123.486 63.1047C123.511 66.3261 124.396 69.0901 125.995 71.054C127.602 73.0277 129.908 74.1609 132.682 74.1389C135.563 74.1169 137.875 72.9123 139.53 71.4641C141.003 70.1755 141.987 68.6647 142.397 67.5627L142.591 67.5608C141.837 70.4356 140.601 73.1984 138.663 75.2883C136.6 77.5132 133.722 79.0028 129.697 79.0344C122.172 79.092 115.105 73.9091 115.036 64.7639V64.7629C114.97 56.133 121.091 49.3662 130.326 49.2942Z" fill="#FFE6EF" stroke="#FFE6EF"/>
<path d="M160.657 49.0682C164.787 49.0363 167.7 50.1433 169.579 51.828C171.456 53.5105 172.355 55.8145 172.373 58.287C172.421 64.3889 167.217 69.1159 159.898 69.1708L159.337 69.1649C158.019 69.1273 156.648 68.9248 155.222 68.5927L154.164 68.3466L154.665 69.3104C156.197 72.2575 158.889 73.9409 162.329 73.9159H162.33C165.212 73.8939 167.524 72.6893 169.179 71.2411C170.651 69.9527 171.635 68.4426 172.046 67.3407L172.237 67.3387C171.341 70.7013 169.795 73.4891 167.645 75.4706C165.37 77.5665 162.394 78.7879 158.72 78.8153C154.678 78.8456 151.192 77.4486 148.71 74.9774C146.228 72.5066 144.718 68.9291 144.685 64.5409C144.65 59.9299 146.242 56.0902 149.021 53.3934C151.801 50.6948 155.805 49.1046 160.657 49.0682ZM160.392 51.662C158.462 51.6771 156.626 52.9066 155.3 54.8759C153.968 56.854 153.11 59.6272 153.135 62.8788C153.147 64.5215 153.395 66.0463 153.755 67.3915L153.888 67.8866L154.379 67.7421C160.506 65.9403 163.565 62.0265 164.339 58.4852C164.723 56.7253 164.545 55.0387 163.863 53.7723C163.173 52.4893 161.966 51.6501 160.392 51.662Z" fill="#FFE6EF" stroke="#FFE6EF"/>
<path d="M200.651 83.4197C200.712 83.7204 200.763 83.9752 200.774 84.1912C200.786 84.4175 200.748 84.4954 200.736 84.5115L200.735 84.5125C193.556 94.054 182.333 99.6119 170.759 102.01C158.239 104.605 145.316 103.727 132.58 102.776C119.262 101.781 105.947 100.778 92.6318 99.78C85.9667 99.2781 79.3037 98.779 72.6387 98.28C66.4008 97.8127 60.0213 97.1054 53.6904 97.6023C48.1277 98.0406 42.5952 99.5536 38.0762 103.052C35.6019 104.966 33.5123 107.414 32.2002 110.235C33.2866 106.104 36.1251 102.599 39.7295 100.114C44.8964 96.5523 51.1792 95.5236 57.5352 95.4734C63.9052 95.4231 70.2824 96.1359 76.6807 96.616C80.0622 96.8699 83.4435 97.1225 86.8242 97.3757C90.2049 97.6289 93.5855 97.8825 96.9668 98.1365C110.332 99.1401 123.703 100.213 137.079 101.134C149.606 101.998 162.545 102.43 174.864 99.0857C184.712 96.4116 194.105 91.3225 200.628 83.2966C200.636 83.3383 200.643 83.3797 200.651 83.4197Z" fill="#FFE6EF" stroke="#FFE6EF"/>
</svg>
