<svg width="60" height="60" viewBox="0 0 60 60" fill="none" xmlns="http://www.w3.org/2000/svg">
<path d="M30 15C28.1458 15 26.3332 15.5498 24.7915 16.58C23.2498 17.6101 22.0482 19.0743 21.3386 20.7873C20.6291 22.5004 20.4434 24.3854 20.8051 26.204C21.1669 28.0225 22.0598 29.693 23.3709 31.0041C24.682 32.3152 26.3525 33.2081 28.171 33.5699C29.9896 33.9316 31.8746 33.7459 33.5877 33.0364C35.3007 32.3268 36.7649 31.1252 37.795 29.5835C38.8252 28.0418 39.375 26.2292 39.375 24.375C39.375 21.8886 38.3873 19.504 36.6291 17.7459C34.871 15.9877 32.4864 15 30 15ZM30 30C28.8875 30 27.7999 29.6701 26.8749 29.052C25.9499 28.4339 25.2289 27.5554 24.8032 26.5276C24.3774 25.4998 24.266 24.3688 24.4831 23.2776C24.7001 22.1865 25.2359 21.1842 26.0225 20.3975C26.8092 19.6109 27.8115 19.0751 28.9026 18.8581C29.9938 18.641 31.1248 18.7524 32.1526 19.1782C33.1804 19.6039 34.0589 20.3249 34.677 21.2499C35.2951 22.1749 35.625 23.2625 35.625 24.375C35.625 25.8668 35.0324 27.2976 33.9775 28.3525C32.9226 29.4074 31.4918 30 30 30ZM30 3.75C24.5318 3.7562 19.2894 5.93118 15.4228 9.79777C11.5562 13.6644 9.3812 18.9068 9.375 24.375C9.375 31.7344 12.7758 39.5344 19.2188 46.9336C22.1138 50.2771 25.3722 53.2878 28.9336 55.9102C29.2489 56.131 29.6245 56.2495 30.0094 56.2495C30.3943 56.2495 30.7699 56.131 31.0852 55.9102C34.64 53.2868 37.8921 50.2761 40.7812 46.9336C47.2148 39.5344 50.625 31.7344 50.625 24.375C50.6188 18.9068 48.4438 13.6644 44.5772 9.79777C40.7106 5.93118 35.4682 3.7562 30 3.75ZM30 52.0312C26.1258 48.9844 13.125 37.793 13.125 24.375C13.125 19.8995 14.9029 15.6072 18.0676 12.4426C21.2322 9.2779 25.5245 7.5 30 7.5C34.4755 7.5 38.7677 9.2779 41.9324 12.4426C45.0971 15.6072 46.875 19.8995 46.875 24.375C46.875 37.7883 33.8742 48.9844 30 52.0312Z" fill="black"/>
</svg>
