<svg width="160" height="160" viewBox="0 0 160 160" fill="none" xmlns="http://www.w3.org/2000/svg">
<path d="M153.002 94C152.477 94.394 151.879 94.6806 151.243 94.8436C150.607 95.0065 149.945 95.0426 149.295 94.9498C148.645 94.8569 148.019 94.6369 147.454 94.3024C146.889 93.9678 146.396 93.5253 146.002 93C142.988 88.9491 139.066 85.6624 134.55 83.4045C130.034 81.1465 125.051 79.9804 120.002 80C119.019 79.9999 118.057 79.7099 117.238 79.1663C116.419 78.6227 115.778 77.8496 115.396 76.9438C115.136 76.3286 115.002 75.6677 115.002 75C115.002 74.3323 115.136 73.6714 115.396 73.0563C115.778 72.1504 116.419 71.3773 117.238 70.8337C118.057 70.2901 119.019 70.0001 120.002 70C122.807 69.9998 125.556 69.2128 127.937 67.7284C130.318 66.244 132.234 64.1218 133.469 61.6028C134.704 59.0837 135.208 56.2689 134.923 53.4779C134.638 50.6869 133.577 48.0317 131.859 45.8139C130.141 43.5961 127.835 41.9045 125.204 40.9314C122.573 39.9582 119.721 39.7425 116.973 40.3086C114.226 40.8748 111.692 42.2002 109.66 44.1343C107.627 46.0684 106.178 48.5336 105.477 51.25C105.313 51.8861 105.025 52.4836 104.63 53.0085C104.235 53.5333 103.74 53.9752 103.174 54.3089C102.608 54.6426 101.982 54.8616 101.332 54.9534C100.681 55.0452 100.019 55.0079 99.3831 54.8438C98.747 54.6796 98.1495 54.3918 97.6247 53.9967C97.0998 53.6016 96.6579 53.107 96.3242 52.5412C95.9905 51.9753 95.7715 51.3493 95.6797 50.6988C95.588 50.0483 95.6252 49.3861 95.7894 48.75C96.7629 44.9832 98.602 41.4956 101.161 38.5647C103.719 35.6338 106.926 33.3405 110.527 31.8672C114.128 30.3939 118.023 29.7814 121.902 30.0783C125.781 30.3752 129.538 31.5734 132.872 33.5776C136.207 35.5817 139.028 38.3364 141.111 41.6226C143.193 44.9088 144.48 48.6357 144.869 52.5067C145.258 56.3778 144.738 60.2862 143.35 63.9209C141.963 67.5557 139.746 70.8164 136.877 73.4438C143.676 76.3875 149.586 81.0588 154.021 86.9938C154.415 87.5204 154.701 88.1195 154.863 88.7569C155.025 89.3943 155.06 90.0574 154.965 90.7082C154.87 91.3591 154.648 91.9848 154.311 92.5497C153.974 93.1145 153.529 93.6074 153.002 94ZM119.327 132.5C119.689 133.069 119.932 133.705 120.041 134.371C120.15 135.036 120.124 135.717 119.964 136.372C119.803 137.027 119.512 137.643 119.107 138.182C118.703 138.722 118.193 139.174 117.61 139.511C117.026 139.849 116.38 140.065 115.71 140.146C115.041 140.227 114.362 140.172 113.714 139.984C113.067 139.796 112.464 139.48 111.942 139.053C111.42 138.626 110.989 138.098 110.677 137.5C107.527 132.167 103.041 127.747 97.662 124.676C92.2827 121.606 86.1958 119.991 80.0019 119.991C73.808 119.991 67.721 121.606 62.3417 124.676C56.9624 127.747 52.4766 132.167 49.3269 137.5C49.0143 138.098 48.5841 138.626 48.0621 139.053C47.5402 139.48 46.9372 139.796 46.2896 139.984C45.6419 140.172 44.963 140.227 44.2936 140.146C43.6241 140.065 42.9781 139.849 42.3942 139.511C41.8104 139.174 41.3009 138.722 40.8963 138.182C40.4917 137.643 40.2005 137.027 40.04 136.372C39.8796 135.717 39.8533 135.036 39.9628 134.371C40.0722 133.705 40.3151 133.069 40.6769 132.5C45.5244 124.171 52.9156 117.617 61.7644 113.8C56.7852 109.988 53.1258 104.711 51.3006 98.7114C49.4755 92.7119 49.5763 86.2912 51.5889 80.3519C53.6015 74.4126 57.4247 69.2533 62.5211 65.5992C67.6175 61.9451 73.7309 59.98 80.0019 59.98C86.2729 59.98 92.3863 61.9451 97.4827 65.5992C102.579 69.2533 106.402 74.4126 108.415 80.3519C110.428 86.2912 110.528 92.7119 108.703 98.7114C106.878 104.711 103.219 109.988 98.2394 113.8C107.088 117.617 114.479 124.171 119.327 132.5ZM80.0019 110C83.9575 110 87.8243 108.827 91.1133 106.629C94.4023 104.432 96.9657 101.308 98.4795 97.6537C99.9932 93.9991 100.389 89.9778 99.6176 86.0982C98.8459 82.2186 96.9411 78.6549 94.144 75.8579C91.347 73.0608 87.7833 71.156 83.9037 70.3843C80.0241 69.6126 76.0027 70.0087 72.3482 71.5224C68.6937 73.0362 65.5701 75.5996 63.3725 78.8886C61.1749 82.1776 60.0019 86.0444 60.0019 90C60.0019 95.3043 62.109 100.391 65.8598 104.142C69.6105 107.893 74.6976 110 80.0019 110ZM45.0019 75C45.0019 73.6739 44.4751 72.4022 43.5374 71.4645C42.5997 70.5268 41.328 70 40.0019 70C37.1964 69.9998 34.4473 69.2128 32.0667 67.7284C29.6861 66.244 27.7695 64.1218 26.5346 61.6028C25.2997 59.0837 24.796 56.2689 25.0806 53.4779C25.3653 50.6869 26.427 48.0317 28.1451 45.8139C29.8631 43.5961 32.1688 41.9045 34.8 40.9314C37.4313 39.9582 40.2827 39.7425 43.0304 40.3086C45.7782 40.8748 48.312 42.2002 50.3442 44.1343C52.3764 46.0684 53.8255 48.5336 54.5269 51.25C54.8584 52.5346 55.6867 53.635 56.8295 54.3089C57.9723 54.9829 59.336 55.1753 60.6206 54.8438C61.9053 54.5122 63.0056 53.684 63.6796 52.5412C64.3535 51.3984 64.5459 50.0346 64.2144 48.75C63.2409 44.9832 61.4017 41.4956 58.8432 38.5647C56.2847 35.6338 53.0774 33.3405 49.4766 31.8672C45.8758 30.3939 41.9808 29.7814 38.1016 30.0783C34.2224 30.3752 30.4661 31.5734 27.1314 33.5776C23.7968 35.5817 20.9759 38.3364 18.8933 41.6226C16.8106 44.9088 15.5237 48.6357 15.1348 52.5067C14.746 56.3778 15.266 60.2862 16.6534 63.9209C18.0409 67.5557 20.2575 70.8164 23.1269 73.4438C16.3349 76.3903 10.4314 81.0614 6.0019 86.9938C5.20542 88.0546 4.86299 89.3884 5.04994 90.7018C5.23689 92.0151 5.93791 93.2004 6.99877 93.9969C8.05964 94.7934 9.39345 95.1358 10.7068 94.9488C12.0201 94.7619 13.2054 94.0609 14.0019 93C17.0156 88.9491 20.9382 85.6624 25.4541 83.4045C29.97 81.1465 34.953 79.9804 40.0019 80C41.328 80 42.5997 79.4732 43.5374 78.5355C44.4751 77.5979 45.0019 76.3261 45.0019 75Z" fill="#611E01"/>
</svg>
