<svg width="68" height="68" viewBox="0 0 68 68" fill="none" xmlns="http://www.w3.org/2000/svg">
<path d="M54.7765 43.9802L44.5241 37.5553L44.4958 37.5372C43.962 37.2152 43.3563 37.0314 42.7335 37.0024C42.1107 36.9734 41.4906 37.1002 40.9291 37.3712C40.8631 37.4027 40.7989 37.438 40.7369 37.4769L34.4153 41.5059C31.0783 39.2682 27.8941 35.0853 26.648 31.3099L32.2714 26.2464C32.3259 26.1949 32.3781 26.143 32.4286 26.0862C32.8353 25.6206 33.1206 25.0617 33.2591 24.4592C33.3976 23.8568 33.385 23.2294 33.2224 22.633L33.2263 22.6051L29.8394 10.9658C29.6233 10.1861 29.1608 9.49729 28.521 9.00207C27.8812 8.50684 27.0984 8.23182 26.2895 8.21804C23.0864 8.19341 19.9838 9.33561 17.5612 11.4313C15.1387 13.527 13.5618 16.4329 13.1252 19.6062C10.5555 38.0373 23.4604 55.1236 41.8915 57.6933C45.0633 58.1413 48.2897 57.4194 50.9681 55.6625C53.6465 53.9055 55.5937 51.2337 56.4462 48.146C56.6543 47.3644 56.6042 46.5365 56.3033 45.7857C56.0024 45.035 55.4668 44.4017 54.7765 43.9802ZM42.4094 53.9792C34.5329 52.8723 27.4172 48.6861 22.6235 42.3392C17.8298 35.9922 15.7496 28.0029 16.8393 20.124C17.1466 17.8561 18.2689 15.7775 19.9967 14.2765C21.7245 12.7754 23.9395 11.9547 26.2282 11.9674C26.226 11.9765 26.2247 11.9858 26.2243 11.9952L29.578 23.585L23.9792 28.6589C23.9226 28.7081 23.8701 28.7617 23.8219 28.8192C23.3979 29.3065 23.1069 29.8951 22.9772 30.528C22.8475 31.1608 22.8835 31.8164 23.0817 32.4313C24.5851 37.0258 28.3192 41.9314 32.3741 44.6384C32.9159 44.9952 33.541 45.2053 34.1883 45.2483C34.8355 45.2912 35.4829 45.1655 36.0671 44.8835C36.1323 44.8516 36.1957 44.8162 36.257 44.7774L42.5713 40.7498L52.8001 47.1573C52.8001 47.1573 52.8187 47.1598 52.8257 47.1608C52.2151 49.3694 50.8208 51.2798 48.9036 52.5348C46.9865 53.7898 44.6777 54.3033 42.4094 53.9792Z" fill="black"/>
</svg>
